<svg xmlns="http://www.w3.org/2000/svg" viewBox="0 0 768 768" fill="none">
  <path d="M384 171.429c-58.88 0-106.667 47.787-106.667 106.667 0 58.88 47.787 106.667 106.667 106.667 58.88 0 106.667-47.787 106.667-106.667 0-58.88-47.787-106.667-106.667-106.667zm0 0" fill="currentColor"/>
  <path d="M277.333 490.667c-58.88 0-106.667 47.787-106.667 106.667C170.666 656.213 218.453 704 277.333 704c58.88 0 106.667-47.787 106.667-106.667 0-58.88-47.787-106.666-106.667-106.666zm0 0M490.667 490.667c-58.88 0-106.667 47.787-106.667 106.667C384 656.213 431.787 704 490.667 704c58.88 0 106.666-47.787 106.666-106.667 0-58.88-47.786-106.666-106.666-106.666zm0 0" fill="currentColor" opacity=".7"/>
</svg>
